<svg xmlns="http://www.w3.org/2000/svg" version="1.1" xmlns:xlink="http://www.w3.org/1999/xlink" xmlns:svgjs="http://svgjs.dev/svgjs" width="1500" height="1500" viewBox="0 0 1500 1500"><rect width="1500" height="1500" fill="#ffffff"></rect><g transform="matrix(0.6666666666666666,0,0,0.6666666666666666,249.39393939393938,681.4065780081083)"><svg viewBox="0 0 396 54" data-background-color="#ffffff" preserveAspectRatio="xMidYMid meet" height="204" width="1500" xmlns="http://www.w3.org/2000/svg" xmlns:xlink="http://www.w3.org/1999/xlink"><g id="tight-bounds" transform="matrix(1,0,0,1,0.2400000000000091,0.23562343795700258)"><svg viewBox="0 0 395.52 53.528753124085995" height="53.528753124085995" width="395.52"><g><svg viewBox="0 0 430.5185922055511 58.26538085937499" height="53.528753124085995" width="395.52"><g><svg viewBox="0 0 430.5185922055511 58.26538085937499" height="58.26538085937499" width="430.5185922055511"><g id="textblocktransform"><svg viewBox="0 0 430.5185922055511 58.26538085937499" height="58.26538085937499" width="430.5185922055511" id="textblock"><g><svg viewBox="0 0 430.5185922055511 58.26538085937499" height="58.26538085937499" width="430.5185922055511"><g><svg><g></g><g></g></svg></g><g><svg><g><svg></svg></g><g></g></svg></g><g id="text-0"><svg viewBox="0 0 430.5185922055511 58.26538085937499" height="58.26538085937499" width="430.5185922055511"><g transform="matrix(1,0,0,1,0,11.627807617187496)"><svg width="222.509765625" viewBox="1.49 -35.01 222.48999999999998 35.01" height="35.009765625" data-palette-color="#d7dbde"><path d="M1.49-30L1.49-35.01 29.49-35.01 29.49-30 17.99-30 17.99 0 12.99 0 12.99-30 1.49-30ZM46.7-21.19L36.79-21.19 36.79 0 32 0 32-26 36.79-26 36.79-21.41Q36.84-22.36 37.23-23.21 37.62-24.05 38.27-24.67 38.91-25.29 39.77-25.65 40.62-26 41.6-26L41.6-26 46.7-26Q47.7-26 48.57-25.62 49.44-25.24 50.1-24.6 50.75-23.95 51.13-23.07 51.51-22.19 51.51-21.19L51.51-21.19 51.51-16.8 46.7-16.8 46.7-21.19ZM79.49-21.19L79.49-10.55 62.28-10.55 62.28-4.81 79.49-4.81 79.49 0 62.28 0Q61.3 0 60.42-0.38 59.54-0.76 58.89-1.4 58.25-2.05 57.87-2.93 57.49-3.81 57.49-4.81L57.49-4.81 57.49-21.19Q57.49-22.19 57.87-23.07 58.25-23.95 58.89-24.6 59.54-25.24 60.42-25.62 61.3-26 62.28-26L62.28-26 74.68-26Q75.68-26 76.56-25.62 77.44-25.24 78.08-24.6 78.73-23.95 79.11-23.07 79.49-22.19 79.49-21.19L79.49-21.19ZM74.68-21.19L62.28-21.19 62.28-15.36 74.68-15.36 74.68-21.19ZM87.49-4.81L87.49-11.35Q87.49-12.35 87.87-13.22 88.25-14.09 88.9-14.75 89.54-15.41 90.42-15.78 91.3-16.16 92.28-16.16L92.28-16.16 104.68-16.16 104.68-21.19 88.98-21.19 88.98-26 104.68-26Q105.68-26 106.56-25.62 107.44-25.24 108.09-24.6 108.73-23.95 109.11-23.07 109.49-22.19 109.49-21.19L109.49-21.19 109.49 0 104.68 0 104.68-4.39Q104.61-3.49 104.19-2.69 103.78-1.88 103.13-1.28 102.48-0.68 101.65-0.34 100.82 0 99.89 0L99.89 0 92.28 0Q91.3 0 90.42-0.38 89.54-0.76 88.9-1.4 88.25-2.05 87.87-2.93 87.49-3.81 87.49-4.81L87.49-4.81ZM92.28-11.35L92.28-4.81 104.68-4.81 104.68-11.35 92.28-11.35ZM116.98-4.81L133.19-4.81 133.19-10.84 121.79-10.84Q120.79-10.84 119.91-11.22 119.03-11.6 118.39-12.24 117.74-12.89 117.36-13.77 116.98-14.65 116.98-15.65L116.98-15.65 116.98-21.19Q116.98-22.19 117.36-23.07 117.74-23.95 118.39-24.6 119.03-25.24 119.91-25.62 120.79-26 121.79-26L121.79-26 137-26 137-21.19 121.79-21.19 121.79-15.65 133.19-15.65Q134.19-15.65 135.06-15.27 135.93-14.89 136.59-14.25 137.25-13.6 137.62-12.72 138-11.84 138-10.84L138-10.84 138-4.81Q138-3.81 137.62-2.93 137.25-2.05 136.59-1.4 135.93-0.76 135.06-0.38 134.19 0 133.19 0L133.19 0 116.98 0 116.98-4.81ZM145.5-4.81L145.5-26 150.28-26 150.28-4.81 163.68-4.81 163.68-26 168.49-26 168.49 0 163.68 0 163.68-4.39Q163.61-3.49 163.2-2.69 162.78-1.88 162.13-1.28 161.49-0.68 160.66-0.34 159.83 0 158.9 0L158.9 0 150.28 0Q149.3 0 148.43-0.38 147.55-0.76 146.9-1.4 146.25-2.05 145.87-2.93 145.5-3.81 145.5-4.81L145.5-4.81ZM191.2-21.19L181.28-21.19 181.28 0 176.5 0 176.5-26 181.28-26 181.28-21.41Q181.33-22.36 181.72-23.21 182.11-24.05 182.76-24.67 183.41-25.29 184.26-25.65 185.12-26 186.09-26L186.09-26 191.2-26Q192.2-26 193.06-25.62 193.93-25.24 194.59-24.6 195.25-23.95 195.63-23.07 196.01-22.19 196.01-21.19L196.01-21.19 196.01-16.8 191.2-16.8 191.2-21.19ZM223.98-21.19L223.98-10.55 206.77-10.55 206.77-4.81 223.98-4.81 223.98 0 206.77 0Q205.79 0 204.91-0.38 204.04-0.76 203.39-1.4 202.74-2.05 202.36-2.93 201.98-3.81 201.98-4.81L201.98-4.81 201.98-21.19Q201.98-22.19 202.36-23.07 202.74-23.95 203.39-24.6 204.04-25.24 204.91-25.62 205.79-26 206.77-26L206.77-26 219.17-26Q220.17-26 221.05-25.62 221.93-25.24 222.58-24.6 223.22-23.95 223.6-23.07 223.98-22.19 223.98-21.19L223.98-21.19ZM219.17-21.19L206.77-21.19 206.77-15.36 219.17-15.36 219.17-21.19Z" opacity="1" transform="matrix(1,0,0,1,0,0)" fill="#d7dbde" class="undefined-tk-0"></path></svg></g><g><svg xmlns="http://www.w3.org/2000/svg" xmlns:xlink="http://www.w3.org/1999/xlink" version="1.1" x="236.265869140625" y="0" viewBox="4.958 12.704 90.083 74.59299999999999" enable-background="new 0 0 100 100" xml:space="preserve" height="58.26538085937499" width="70.36478361180109" class="icon-dxe-0" data-fill-palette-color="accent" id="dxe-0"><g fill="#f84e45" data-fill-palette-color="accent"><path d="M81.506 12.704H18.493C11.017 12.704 4.958 18.765 4.958 26.239V87.297H95.041V26.238C95.041 18.764 88.981 12.704 81.506 12.704M34.547 17.215H65.452V35.563H62.068V30.974A4.516 4.516 0 0 0 57.556 26.462H42.442A4.52 4.52 0 0 0 37.93 30.974V35.563H34.546zM50 54.171C44.34 54.171 39.735 49.567 39.735 43.907V30.974A2.71 2.71 0 0 1 42.442 28.267H57.556A2.71 2.71 0 0 1 60.263 30.974V43.907C60.264 49.566 55.66 54.171 50 54.171M24.434 82.785H9.47V43.684H24.434zM26.877 35.563H9.47V26.238C9.47 21.263 13.518 17.215 18.493 17.215H26.877zM30.523 82.785V43.684H37.93V43.907C37.93 49.509 41.771 54.217 46.954 55.571V82.785zM69.287 82.785H53.045V55.571C58.228 54.216 62.068 49.508 62.068 43.907V43.684H69.287zM90.529 82.785H75.378V43.684H90.529zM90.529 35.563H73.122V17.215H81.506C86.482 17.215 90.529 21.263 90.529 26.238z" fill="#000000" data-fill-palette-color="accent"></path><path d="M50 32.226A4.93 4.93 0 0 0 45.074 37.151C45.074 38.894 46 40.494 47.474 41.375V48.407H52.523V41.376A4.922 4.922 0 0 0 50 32.226M51.257 40.002L50.719 40.239V46.602H49.28V40.24L48.743 40.002A3.12 3.12 0 0 1 46.88 37.151C46.88 35.431 48.28 34.031 50.001 34.031S53.12 35.431 53.12 37.151A3.12 3.12 0 0 1 51.257 40.002" fill="#000000" data-fill-palette-color="accent"></path></g></svg></g><g transform="matrix(1,0,0,1,320.3867562680511,10.626831054687496)"><svg width="110.13183593749999" viewBox="1.49 -36.01 110.12 36.01" height="36.0107421875" data-palette-color="#d7dbde"><path d="M1.49-30L1.49-35.01 29.49-35.01 29.49-30 17.99-30 17.99 0 12.99 0 12.99-30 1.49-30ZM35.25-26L40.06-26 40.06 0 35.25 0 35.25-26ZM35.01-31.01L35.01-36.01 40.31-36.01 40.31-31.01 35.01-31.01ZM48.31-36.01L53.1-36.01 53.1 0 48.31 0 48.31-36.01ZM83.1-21.19L83.1-10.55 65.89-10.55 65.89-4.81 83.1-4.81 83.1 0 65.89 0Q64.91 0 64.03-0.38 63.15-0.76 62.5-1.4 61.86-2.05 61.48-2.93 61.1-3.81 61.1-4.81L61.1-4.81 61.1-21.19Q61.1-22.19 61.48-23.07 61.86-23.95 62.5-24.6 63.15-25.24 64.03-25.62 64.91-26 65.89-26L65.89-26 78.29-26Q79.29-26 80.17-25.62 81.05-25.24 81.69-24.6 82.34-23.95 82.72-23.07 83.1-22.19 83.1-21.19L83.1-21.19ZM78.29-21.19L65.89-21.19 65.89-15.36 78.29-15.36 78.29-21.19ZM90.59-4.81L106.8-4.81 106.8-10.84 95.4-10.84Q94.4-10.84 93.52-11.22 92.64-11.6 91.99-12.24 91.35-12.89 90.97-13.77 90.59-14.65 90.59-15.65L90.59-15.65 90.59-21.19Q90.59-22.19 90.97-23.07 91.35-23.95 91.99-24.6 92.64-25.24 93.52-25.62 94.4-26 95.4-26L95.4-26 110.61-26 110.61-21.19 95.4-21.19 95.4-15.65 106.8-15.65Q107.8-15.65 108.67-15.27 109.54-14.89 110.2-14.25 110.85-13.6 111.23-12.72 111.61-11.84 111.61-10.84L111.61-10.84 111.61-4.81Q111.61-3.81 111.23-2.93 110.85-2.05 110.2-1.4 109.54-0.76 108.67-0.38 107.8 0 106.8 0L106.8 0 90.59 0 90.59-4.81Z" opacity="1" transform="matrix(1,0,0,1,0,0)" fill="#d7dbde" class="undefined-tk-1"></path></svg></g></svg></g></svg></g></svg></g></svg></g></svg></g><defs></defs></svg><rect width="395.52" height="53.528753124085995" fill="none" stroke="none" visibility="hidden"></rect></g></svg></g></svg>